<svg width="72" height="72" viewBox="0 0 72 72" fill="none" xmlns="http://www.w3.org/2000/svg">
    <path d="M51.75 0C52.8891 0 53.8305 0.846462 53.9795 1.94469L54 2.25V4.49998H57.375C58.6176 4.49998 59.625 5.50734 59.625 6.74998C59.625 7.88907 58.7785 8.83045 57.6803 8.97944L57.375 8.99998L51.7615 8.99997L51.75 9L51.7385 8.99997L49.4929 8.99997C48.6412 8.99726 47.908 9.6004 47.7464 10.4365C47.6028 11.1798 47.9468 11.9204 48.4656 12.2562L48.6677 12.3623L56.8007 14.897C59.5952 16.0149 61.2027 18.9593 60.6317 21.9145C60.0925 24.7055 57.7536 26.7639 54.9621 26.981L54.465 27H54V29.25C54 30.4926 52.9926 31.5 51.75 31.5C50.6109 31.5 49.6695 30.6535 49.5205 29.5553L49.5 29.25V27H45C43.7574 27 42.75 25.9926 42.75 24.75C42.75 23.6109 43.5965 22.6695 44.6947 22.5205L45 22.5H54.4676C55.3194 22.501 56.0519 21.8972 56.2134 21.0609C56.357 20.3175 56.0136 19.5766 55.4981 19.2408L55.2973 19.1347L47.1682 16.6016C44.3687 15.4878 42.7564 12.5409 43.3282 9.5826C43.8682 6.78868 46.2121 4.73007 49.0031 4.51801L49.5 4.49998V2.25C49.5 1.00736 50.5074 0 51.75 0Z" fill="#367BDA"/>
    <path fill-rule="evenodd" clip-rule="evenodd" d="M7.875 32.625C7.875 29.9391 8.59901 27.4224 9.86251 25.2593C9.88438 25.2195 9.90754 25.1803 9.93198 25.1416C12.4841 20.8646 17.1575 18 22.5 18C29.8768 18 35.978 23.4616 36.9806 30.5618C36.9912 30.6216 36.9992 30.6816 37.0048 30.7415C37.0841 31.3581 37.125 31.9868 37.125 32.625C37.125 40.5617 30.803 47.0218 22.92 47.2441C25.0232 47.2812 27.1339 47.6134 29.1903 48.2509C30.3772 48.6189 31.0411 49.8794 30.6731 51.0663C30.3051 52.2532 29.0446 52.9171 27.8577 52.5491C22.3906 50.854 16.4433 51.857 11.8345 55.2513C7.22561 58.6455 4.50332 64.0274 4.5 69.7513C4.49928 70.9939 3.49134 72.0007 2.2487 72C1.00606 71.9993 -0.000719178 70.9913 3.85475e-07 69.7487C0.00414771 62.5955 3.40622 55.8697 9.16594 51.6279C12.966 48.8292 17.4942 47.3314 22.0978 47.2446C14.2066 47.0315 7.875 40.5677 7.875 32.625ZM12.375 32.625C12.375 31.7601 12.4835 30.9205 12.6875 30.1191C18.3091 34.4613 25.6549 35.9377 32.5176 34.1049C31.8014 38.9953 27.5892 42.75 22.5 42.75C16.9081 42.75 12.375 38.2169 12.375 32.625ZM22.5 22.5C27.0118 22.5 30.8343 25.451 32.1426 29.5282C26.1538 31.4179 19.5987 30.1009 14.8044 26.045C16.6614 23.8752 19.4201 22.5 22.5 22.5Z" fill="#367BDA"/>
    <path fill-rule="evenodd" clip-rule="evenodd" d="M50.673 51.294L51.1036 51.3114C53.8017 51.5304 55.923 53.7895 55.923 56.544C55.923 59.4435 53.5725 61.794 50.673 61.794C47.7735 61.794 45.423 59.4435 45.423 56.544C45.423 53.7895 47.5443 51.5304 50.2424 51.3114L50.673 51.294ZM50.501 55.8138C50.1697 55.8915 49.923 56.189 49.923 56.544C49.923 56.9582 50.2588 57.294 50.673 57.294C51.0872 57.294 51.423 56.9582 51.423 56.544C51.423 56.189 51.1763 55.8915 50.845 55.8138L50.673 55.794L50.501 55.8138Z" fill="#367BDA"/>
    <path fill-rule="evenodd" clip-rule="evenodd" d="M41.955 42.75L66.9307 42.75C68.5426 42.744 70.0616 43.5036 71.0265 44.8C71.9946 46.106 72.2598 47.8041 71.7356 49.3442L64.5296 70.4762C64.2189 71.3874 63.3628 72 62.4 72H11.052C9.80936 72 8.802 70.9926 8.802 69.75C8.802 68.6109 9.64846 67.6695 10.7467 67.5205L11.052 67.5H29.8901L37.177 46.1328C37.8895 44.1029 39.808 42.7458 41.955 42.75ZM66.9473 47.25L41.9506 47.25C41.7133 47.2495 41.5016 47.3992 41.4296 47.6042L34.644 67.497H60.789L67.476 47.893C67.5078 47.7997 67.5076 47.7 67.4787 47.6097L67.414 47.4833C67.3043 47.3359 67.1311 47.2493 66.9473 47.25Z" fill="#367BDA"/>
</svg>
