<svg width="120" height="60" viewBox="0 0 120 60" fill="none" xmlns="http://www.w3.org/2000/svg">
    <path fill-rule="evenodd" clip-rule="evenodd" d="M52.4022 43.62C56.0325 43.62 59.152 42.3053 61.761 39.6752C64.3476 37.1112 65.6413 34.014 65.6413 30.384C65.6413 26.7328 64.3476 23.625 61.761 21.0603C59.152 18.474 56.0325 17.1808 52.4022 17.1808C48.7714 17.1808 45.6735 18.474 43.1088 21.0603C40.5001 23.6468 39.1957 26.7548 39.1957 30.384C39.1957 33.9922 40.5001 37.0891 43.1088 39.6752C45.6735 42.3053 48.7714 43.62 52.4022 43.62ZM69.1304 30.384C69.1304 34.9699 67.4887 38.9042 64.2064 42.1857C60.9671 45.4457 57.0326 47.0758 52.4022 47.0758C47.8152 47.0758 43.8912 45.4457 40.6305 42.1857C37.3696 38.9256 35.7391 34.992 35.7391 30.384C35.7391 25.7768 37.3696 21.854 40.6305 18.6154C43.8912 15.3552 47.8152 13.7251 52.4022 13.7251C55.5325 13.7251 58.4236 14.5294 61.0761 16.1377C62.8802 17.246 64.4023 18.5938 65.6413 20.18V1.76045C65.6413 1.28281 65.8043 0.858882 66.1303 0.489117C66.4779 0.162963 66.8803 0 67.337 0C67.8586 0 68.2826 0.162963 68.6086 0.489117C68.956 0.837077 69.1304 1.26078 69.1304 1.76045V30.384Z" fill="white"/>
    <path fill-rule="evenodd" clip-rule="evenodd" d="M52.4022 43.62C56.0325 43.62 59.152 42.3053 61.761 39.6752C64.3476 37.1112 65.6413 34.014 65.6413 30.384C65.6413 26.7328 64.3476 23.625 61.761 21.0603C59.152 18.474 56.0325 17.1808 52.4022 17.1808C48.7714 17.1808 45.6735 18.474 43.1088 21.0603C40.5001 23.6468 39.1957 26.7548 39.1957 30.384C39.1957 33.9922 40.5001 37.0891 43.1088 39.6752C45.6735 42.3053 48.7714 43.62 52.4022 43.62ZM69.1304 30.384C69.1304 34.9699 67.4887 38.9042 64.2064 42.1857C60.9671 45.4457 57.0326 47.0758 52.4022 47.0758C47.8152 47.0758 43.8912 45.4457 40.6305 42.1857C37.3696 38.9256 35.7391 34.992 35.7391 30.384C35.7391 25.7768 37.3696 21.854 40.6305 18.6154C43.8912 15.3552 47.8152 13.7251 52.4022 13.7251C55.5325 13.7251 58.4236 14.5294 61.0761 16.1377C62.8802 17.246 64.4023 18.5938 65.6413 20.18V1.76045C65.6413 1.28281 65.8043 0.858882 66.1303 0.489117C66.4779 0.162963 66.8803 0 67.337 0C67.8586 0 68.2826 0.162963 68.6086 0.489117C68.956 0.837077 69.1304 1.26078 69.1304 1.76045V30.384Z" fill="white"/>
    <path fill-rule="evenodd" clip-rule="evenodd" d="M89.8608 43.2585H89.828C90.2649 43.2585 90.6689 43.4219 91.0407 43.7483C91.2373 43.9441 91.3737 44.14 91.4505 44.3358C91.5267 44.5319 91.5652 44.7716 91.5652 45.0541C91.5652 45.5331 91.3898 45.9577 91.0407 46.3275C90.6689 46.6539 90.2649 46.8171 89.828 46.8171H89.6312C85.0642 46.8171 81.0766 45.1633 77.6678 41.8547C75.9633 40.2009 74.6902 38.3832 73.8493 36.4025C73.008 34.4223 72.5654 32.2562 72.5217 29.9054V1.763C72.5217 1.50188 72.5598 1.26812 72.6364 1.06102C72.7128 0.854605 72.8383 0.664054 73.0135 0.489823C73.3848 0.163198 73.8108 0 74.2917 0C74.5755 0 74.8162 0.038386 75.0128 0.114239C75.2094 0.190781 75.4063 0.315822 75.6029 0.489823C75.7776 0.664054 75.9031 0.854605 75.9797 1.06102C76.0561 1.26812 76.0944 1.50188 76.0944 1.763V29.5464C76.0944 31.44 76.4223 33.1869 77.0777 34.7864C77.7333 36.3862 78.6946 37.8502 79.9622 39.1776C80.1803 39.3734 80.4046 39.5969 80.6342 39.8467C80.8636 40.0973 81.0766 40.3096 81.2732 40.4836L81.2077 40.4184C81.426 40.5708 81.639 40.7176 81.8469 40.859C82.0543 41.0008 82.2454 41.1364 82.4203 41.267C82.595 41.3764 82.7591 41.4686 82.9121 41.5447C83.0646 41.621 83.24 41.7026 83.4366 41.7892C83.7421 41.9419 84.0643 42.0832 84.4035 42.2138C84.742 42.3443 85.0755 42.4643 85.4032 42.573L87.6974 43.1281L89.8608 43.2585Z" fill="white"/>
    <path fill-rule="evenodd" clip-rule="evenodd" d="M89.8608 43.2585H89.828C90.2649 43.2585 90.6689 43.4219 91.0407 43.7483C91.2373 43.9441 91.3737 44.14 91.4505 44.3358C91.5267 44.5319 91.5652 44.7716 91.5652 45.0541C91.5652 45.5331 91.3898 45.9577 91.0407 46.3275C90.6689 46.6539 90.2649 46.8171 89.828 46.8171H89.6312C85.0642 46.8171 81.0766 45.1633 77.6678 41.8547C75.9633 40.2009 74.6902 38.3832 73.8493 36.4025C73.008 34.4223 72.5654 32.2562 72.5217 29.9054V1.763C72.5217 1.50188 72.5598 1.26812 72.6364 1.06102C72.7128 0.854605 72.8383 0.664054 73.0135 0.489823C73.3848 0.163198 73.8108 0 74.2917 0C74.5755 0 74.8162 0.038386 75.0128 0.114239C75.2094 0.190781 75.4063 0.315822 75.6029 0.489823C75.7776 0.664054 75.9031 0.854605 75.9797 1.06102C76.0561 1.26812 76.0944 1.50188 76.0944 1.763V29.5464C76.0944 31.44 76.4223 33.1869 77.0777 34.7864C77.7333 36.3862 78.6946 37.8502 79.9622 39.1776C80.1803 39.3734 80.4046 39.5969 80.6342 39.8467C80.8636 40.0973 81.0766 40.3096 81.2732 40.4836L81.2077 40.4184C81.426 40.5708 81.639 40.7176 81.8469 40.859C82.0543 41.0008 82.2454 41.1364 82.4203 41.267C82.595 41.3764 82.7591 41.4686 82.9121 41.5447C83.0646 41.621 83.24 41.7026 83.4366 41.7892C83.7421 41.9419 84.0643 42.0832 84.4035 42.2138C84.742 42.3443 85.0755 42.4643 85.4032 42.573L87.6974 43.1281L89.8608 43.2585Z" fill="white"/>
    <path fill-rule="evenodd" clip-rule="evenodd" d="M119.902 14.6891C119.923 14.7543 119.945 14.8361 119.967 14.9336C119.989 15.0314 120 15.1455 120 15.2761C120 15.4285 119.945 15.6673 119.836 15.9935L98.4837 58.7716L98.5165 58.7393C98.21 59.4126 97.6745 59.75 96.9092 59.75C96.6684 59.75 96.4174 59.6848 96.1551 59.5542C95.7172 59.3368 95.4113 59.0214 95.2365 58.6086C95.1709 58.4783 95.1381 58.2609 95.1381 57.9565C95.1381 57.8043 95.1545 57.6739 95.1875 57.5653C95.2201 57.4563 95.2582 57.3477 95.3023 57.2391L100.353 47.1315C98.0352 41.98 95.7228 36.8175 93.4161 31.644C91.109 26.4709 88.7965 21.3079 86.4792 16.1565C86.4351 16.0258 86.4023 15.901 86.3806 15.7814C86.3587 15.6622 86.3478 15.5587 86.3478 15.4717C86.3478 15.2548 86.3806 15.0371 86.4464 14.8195C86.5554 14.5806 86.681 14.3792 86.8235 14.2162C86.9655 14.0533 87.1681 13.9178 87.4304 13.8088C87.5394 13.7656 87.6486 13.7273 87.7583 13.6947C87.8675 13.6619 87.9987 13.6458 88.1518 13.6458C88.2391 13.6458 88.3324 13.657 88.4307 13.6784C88.5291 13.7002 88.6326 13.7328 88.7422 13.7762C89.2671 13.9938 89.595 14.3198 89.7262 14.7543V14.7217C90.863 17.2216 91.9454 19.6345 92.9734 21.9601C94.0008 24.2864 95.0286 26.5958 96.0565 28.8886C97.0841 31.1826 98.1172 33.4917 99.1561 35.8175C100.194 38.1436 101.282 40.5453 102.419 43.0233C104.694 38.4586 107.012 33.8236 109.373 29.1172C111.735 24.4113 114.162 19.5367 116.654 14.4933C116.895 14.037 117.223 13.7328 117.638 13.5806C117.857 13.4941 118.065 13.4502 118.262 13.4502C118.393 13.4502 118.524 13.472 118.655 13.5154C118.787 13.559 118.939 13.6132 119.114 13.6784C119.508 13.9178 119.759 14.244 119.869 14.6565L119.902 14.6891Z" fill="white"/>
    <path fill-rule="evenodd" clip-rule="evenodd" d="M119.902 14.6891C119.923 14.7543 119.945 14.8361 119.967 14.9336C119.989 15.0314 120 15.1455 120 15.2761C120 15.4285 119.945 15.6673 119.836 15.9935L98.4837 58.7716L98.5165 58.7393C98.21 59.4126 97.6745 59.75 96.9092 59.75C96.6684 59.75 96.4174 59.6848 96.1551 59.5542C95.7172 59.3368 95.4113 59.0214 95.2365 58.6086C95.1709 58.4783 95.1381 58.2609 95.1381 57.9565C95.1381 57.8043 95.1545 57.6739 95.1875 57.5653C95.2201 57.4563 95.2582 57.3477 95.3023 57.2391L100.353 47.1315C98.0352 41.98 95.7228 36.8175 93.4161 31.644C91.109 26.4709 88.7965 21.3079 86.4792 16.1565C86.4351 16.0258 86.4023 15.901 86.3806 15.7814C86.3587 15.6622 86.3478 15.5587 86.3478 15.4717C86.3478 15.2548 86.3806 15.0371 86.4464 14.8195C86.5554 14.5806 86.681 14.3792 86.8235 14.2162C86.9655 14.0533 87.1681 13.9178 87.4304 13.8088C87.5394 13.7656 87.6486 13.7273 87.7583 13.6947C87.8675 13.6619 87.9987 13.6458 88.1518 13.6458C88.2391 13.6458 88.3324 13.657 88.4307 13.6784C88.5291 13.7002 88.6326 13.7328 88.7422 13.7762C89.2671 13.9938 89.595 14.3198 89.7262 14.7543V14.7217C90.863 17.2216 91.9454 19.6345 92.9734 21.9601C94.0008 24.2864 95.0286 26.5958 96.0565 28.8886C97.0841 31.1826 98.1172 33.4917 99.1561 35.8175C100.194 38.1436 101.282 40.5453 102.419 43.0233C104.694 38.4586 107.012 33.8236 109.373 29.1172C111.735 24.4113 114.162 19.5367 116.654 14.4933C116.895 14.037 117.223 13.7328 117.638 13.5806C117.857 13.4941 118.065 13.4502 118.262 13.4502C118.393 13.4502 118.524 13.472 118.655 13.5154C118.787 13.559 118.939 13.6132 119.114 13.6784C119.508 13.9178 119.759 14.244 119.869 14.6565L119.902 14.6891Z" fill="white"/>
    <path fill-rule="evenodd" clip-rule="evenodd" d="M29.9751 28.26C29.734 26.7411 29.2691 25.352 28.5796 24.0931C27.8903 22.8349 26.9762 21.6738 25.8384 20.6102C24.5907 19.5252 23.2006 18.6845 21.6688 18.0873C20.1365 17.4907 18.5383 17.1921 16.8754 17.1921C13.4168 17.1921 10.4074 18.3531 7.84679 20.6752V20.6427C5.52629 22.7478 4.13663 25.2869 3.67711 28.26H29.9751ZM33.6522 30.0178C33.6522 30.1269 33.6408 30.2131 33.6194 30.2784C33.4439 31.2337 32.8751 31.7108 31.9121 31.7108H3.61146C3.91773 34.966 5.24175 37.6899 7.58397 39.8813C8.85321 41.1403 10.2648 42.0735 11.8193 42.6811C13.3731 43.2887 15.0584 43.5923 16.8754 43.5923C18.9766 43.5923 21.0336 43.0936 23.0476 42.0951H23.0147C24.9407 41.0972 26.5277 39.7079 27.7755 37.9284C28.0159 37.5375 28.4319 37.2773 29.023 37.1469H29.1871C29.537 37.1469 29.8981 37.2773 30.2705 37.5375C30.6426 37.8418 30.8615 38.2106 30.9272 38.6444C30.9487 38.6882 30.96 38.737 30.96 38.7909V38.9373C30.96 39.3499 30.8396 39.6861 30.5989 39.9464V39.8813C29.8324 41.0101 28.9518 42.0137 27.956 42.8926C26.9597 43.7716 25.8491 44.5366 24.6235 45.1875C22.2157 46.4466 19.6333 47.0758 16.8754 47.0758C12.2132 47.0758 8.22934 45.4481 4.92461 42.1927C1.64138 38.916 0 34.9772 0 30.3758V29.8879C0.174979 25.374 1.89287 21.5542 5.1546 18.429C8.39345 15.2827 12.3006 13.7089 16.8754 13.7089C21.4277 13.7089 25.3237 15.2827 28.5634 18.429C31.8679 21.5759 33.5646 25.4174 33.6522 29.9527V30.0178Z" fill="white"/>
    <path fill-rule="evenodd" clip-rule="evenodd" d="M29.9751 28.26C29.734 26.7411 29.2691 25.352 28.5796 24.0931C27.8903 22.8349 26.9762 21.6738 25.8384 20.6102C24.5907 19.5252 23.2006 18.6845 21.6688 18.0873C20.1365 17.4907 18.5383 17.1921 16.8754 17.1921C13.4168 17.1921 10.4074 18.3531 7.84679 20.6752V20.6427C5.52629 22.7478 4.13663 25.2869 3.67711 28.26H29.9751ZM33.6522 30.0178C33.6522 30.1269 33.6408 30.2131 33.6194 30.2784C33.4439 31.2337 32.8751 31.7108 31.9121 31.7108H3.61146C3.91773 34.966 5.24175 37.6899 7.58397 39.8813C8.85321 41.1403 10.2648 42.0735 11.8193 42.6811C13.3731 43.2887 15.0584 43.5923 16.8754 43.5923C18.9766 43.5923 21.0336 43.0936 23.0476 42.0951H23.0147C24.9407 41.0972 26.5277 39.7079 27.7755 37.9284C28.0159 37.5375 28.4319 37.2773 29.023 37.1469H29.1871C29.537 37.1469 29.8981 37.2773 30.2705 37.5375C30.6426 37.8418 30.8615 38.2106 30.9272 38.6444C30.9487 38.6882 30.96 38.737 30.96 38.7909V38.9373C30.96 39.3499 30.8396 39.6861 30.5989 39.9464V39.8813C29.8324 41.0101 28.9518 42.0137 27.956 42.8926C26.9597 43.7716 25.8491 44.5366 24.6235 45.1875C22.2157 46.4466 19.6333 47.0758 16.8754 47.0758C12.2132 47.0758 8.22934 45.4481 4.92461 42.1927C1.64138 38.916 0 34.9772 0 30.3758V29.8879C0.174979 25.374 1.89287 21.5542 5.1546 18.429C8.39345 15.2827 12.3006 13.7089 16.8754 13.7089C21.4277 13.7089 25.3237 15.2827 28.5634 18.429C31.8679 21.5759 33.5646 25.4174 33.6522 29.9527V30.0178Z" fill="white"/>
</svg>
