<svg width="72" height="73" viewBox="0 0 72 73" fill="none" xmlns="http://www.w3.org/2000/svg">
    <path fill-rule="evenodd" clip-rule="evenodd" d="M60.1603 39.4925C60.457 39.6422 60.791 39.72 61.1222 39.72C61.9459 39.72 62.6861 39.2621 63.0518 38.5248C63.5846 37.4592 63.1526 36.1603 62.087 35.6275C55.2182 32.1917 54.5472 23.5546 54.4925 22.5264C54.5904 21.769 54.6422 21.0144 54.6422 20.28V7.32H69.7622C70.9546 7.32 71.9222 6.35232 71.9222 5.16C71.9222 3.96768 70.9546 3 69.7622 3H4.96224C3.76992 3 2.80224 3.96768 2.80224 5.16C2.80224 6.35232 3.76992 7.32 4.96224 7.32H7.12224V26.76C7.12224 27.9523 8.08992 28.92 9.28224 28.92C10.4746 28.92 11.4422 27.9523 11.4422 26.76V7.32H20.0822V20.28C20.0822 21.0086 20.1312 21.7574 20.2291 22.5149C20.1802 23.5315 19.5523 32.1715 12.6346 35.6304C11.5718 36.1603 11.137 37.4621 11.6698 38.5277C12.0384 39.2621 12.7786 39.72 13.6022 39.72C13.9334 39.72 14.2675 39.6422 14.567 39.4925C19.1923 37.1798 21.6749 33.3235 23.0054 29.8819C26.1878 34.6138 31.585 37.56 37.3622 37.56C43.1366 37.56 48.5366 34.6138 51.7219 29.8848C53.0525 33.3264 55.5322 37.1798 60.1603 39.4925ZM37.3622 33.24C30.217 33.24 24.4022 27.4253 24.4022 20.28H50.3222C50.3222 27.4253 44.5075 33.24 37.3622 33.24ZM50.3222 15.96V7.32H24.4022V15.96H50.3222Z" fill="#367BDA"/>
    <path fill-rule="evenodd" clip-rule="evenodd" d="M7.04687 72.1175L7.03872 72.1171C6.47136 72.0768 5.94432 71.8147 5.56704 71.377C5.18976 70.9421 5.00256 70.3834 5.04576 69.8074C5.8176 59.0707 11.903 49.4371 21.3293 44.0198C21.5654 43.8125 21.839 43.6598 22.1414 43.5706C26.1734 41.4019 30.5107 40.1376 35.041 39.8122C35.8186 39.7546 36.6077 39.7286 37.3853 39.7286C42.7046 39.7286 47.9981 41.0707 52.7011 43.608C52.9142 43.6829 53.113 43.7923 53.2915 43.9306C62.7754 49.3075 68.9011 58.9728 69.6787 69.8074C69.719 70.3834 69.5347 70.9392 69.1574 71.377C68.7802 71.8118 68.256 72.0768 67.68 72.1171C67.6339 72.12 67.5792 72.12 67.5216 72.12C66.3955 72.12 65.4509 71.2387 65.3674 70.1155C64.7222 61.127 59.7859 53.0083 52.1165 48.2563L38.687 58.705C38.3098 58.9987 37.8403 59.16 37.3594 59.16C36.8813 59.16 36.4118 58.9987 36.0317 58.705L22.6224 48.2736C14.9386 53.0544 9.99648 61.1645 9.35424 70.1155C9.2736 71.2387 8.33184 72.1229 7.20864 72.1229C7.15376 72.1229 7.1015 72.1203 7.04687 72.1175ZM37.3622 54.264L47.8598 46.0963C44.5162 44.737 40.991 44.0486 37.3594 44.0486C36.6912 44.0486 36.0173 44.0717 35.3491 44.1206C32.4288 44.3309 29.5862 44.9962 26.8733 46.105L37.3622 54.264Z" fill="#367BDA"/>
</svg>
